<svg width="400" height="285" viewBox="0 0 400 285" fill="none" xmlns="http://www.w3.org/2000/svg">
<g filter="url(#filter0_i_56_18)">
<path d="M49.2721 118.644C46.6808 118.644 44.4134 118.212 42.4699 117.349C36.6395 115.621 30.701 111.95 24.6547 106.336C18.6083 100.505 13.3177 93.5949 8.7829 85.6051C4.46405 77.3993 1.87274 69.3014 1.00897 61.3116C0.79303 60.4478 0.685059 59.3681 0.685059 58.0724C0.685059 56.7768 0.685059 55.2652 0.685059 53.5376C0.685059 25.6811 18.1764 11.7528 53.159 11.7528C70.4344 11.7528 89.4374 14.4521 110.168 19.8506C130.898 25.2492 154.976 32.4833 182.401 41.5529C189.311 43.9282 195.141 45.8717 199.892 47.3833C204.643 48.8949 208.098 49.9746 210.257 50.6224C217.599 52.7818 224.401 53.8616 230.664 53.8616C237.574 53.8616 242.648 52.5659 245.888 49.9746C249.127 47.1673 250.638 44.1441 250.422 40.905V39.6094C250.422 37.0181 251.178 35.7224 252.69 35.7224C254.417 35.7224 256.253 37.0181 258.196 39.6094C259.06 40.6891 259.492 42.2007 259.492 44.1442C259.492 48.6789 257.009 52.8898 252.042 56.7768C247.075 60.6637 239.517 62.6072 229.368 62.6072C220.083 62.6072 209.825 61.0956 198.596 58.0724C187.367 55.0492 172.791 50.6224 154.868 44.792C134.785 38.3137 118.266 33.455 105.309 30.2159C92.3526 26.7608 80.2598 25.0332 69.0308 25.0332C42.6858 25.0332 25.9503 36.5862 18.8242 59.692C18.1764 61.8514 17.8525 64.3348 17.8525 67.142C17.8525 72.5406 19.2561 78.6949 22.0634 85.6051C25.0865 92.2993 28.7576 98.3457 33.0764 103.744C37.3953 108.927 41.6061 111.95 45.709 112.814H47.9764C53.159 112.814 55.7504 113.786 55.7504 115.729C55.7504 116.377 55.2105 117.025 54.1308 117.673C52.8351 118.32 51.2156 118.644 49.2721 118.644ZM70.0025 235.253C59.8533 233.094 54.7786 227.587 54.7786 218.734C54.7786 214.415 55.8583 208.692 58.0177 201.566C60.1772 195.304 62.1207 189.797 63.8482 185.047C65.7917 180.08 67.6272 175.869 69.3547 172.414C71.0823 168.959 73.1337 165.072 75.5091 160.753C78.1004 156.434 81.1236 151.575 84.5787 146.177L68.383 155.57C65.5757 157.082 63.0924 158.378 60.933 159.457C58.7735 160.537 56.8301 161.293 55.1025 161.725C54.8866 161.725 54.6706 161.833 54.4547 162.049C54.4547 162.049 54.3467 162.049 54.1308 162.049C53.0511 162.049 52.5112 161.185 52.5112 159.457C52.5112 157.082 53.267 154.167 54.7786 150.712C56.5062 147.257 58.1257 144.989 59.6373 143.91C62.4446 142.398 65.0359 141.102 67.4112 140.023C69.7866 138.943 71.8381 138.187 73.5656 137.755C74.2134 137.539 74.9692 137.323 75.833 137.107C76.6968 136.675 77.6685 136.352 78.7482 136.136C80.6917 135.488 83.283 134.516 86.5221 133.22C89.7613 131.709 92.3526 130.845 94.2961 130.629C94.2961 130.629 95.0519 129.549 96.5635 127.39C98.0751 125.015 100.342 121.559 103.366 117.025C112.435 102.988 118.05 94.0268 120.209 90.1399C125.392 80.8543 130.035 73.6203 134.137 68.4377C136.513 65.1985 139.86 63.579 144.179 63.579C147.202 63.579 150.009 64.3348 152.6 65.8464C155.192 67.358 156.487 68.9775 156.487 70.7051C156.487 71.7848 156.056 72.6485 155.192 73.2964C149.145 78.479 141.911 85.821 133.49 95.3225C125.284 104.608 117.186 114.541 109.196 125.123C126.471 120.588 142.667 118.32 157.783 118.32C161.238 118.32 163.722 118.644 165.233 119.292C166.961 120.372 167.824 121.344 167.824 122.207C167.824 122.855 167.177 123.719 165.881 124.799C165.233 125.23 164.369 125.554 163.29 125.77C162.426 125.986 161.454 126.202 160.374 126.418C152.169 126.85 144.935 127.606 138.672 128.686C132.41 129.765 126.256 131.277 120.209 133.22C114.379 134.948 107.792 137.323 100.45 140.346C95.9156 146.825 92.1366 152.331 89.1134 156.866C86.0903 161.185 83.6069 165.288 81.6634 169.175C79.72 172.846 77.8844 176.949 76.1569 181.483C74.4294 185.802 72.5939 191.201 70.6504 197.679C68.491 204.157 67.4112 209.34 67.4112 213.227C67.4112 219.273 70.1105 222.944 75.5091 224.24C77.4526 224.456 78.4243 225.536 78.4243 227.479C78.4243 229.423 77.4526 231.258 75.5091 232.986C73.7815 234.929 71.946 235.685 70.0025 235.253Z" fill="#195191"/>
<path d="M202.028 214.523C196.413 214.523 193.606 210.42 193.606 202.214C193.606 193.792 196.521 181.376 202.352 164.964C195.441 173.818 188.531 181.699 181.621 188.61C174.927 195.304 168.233 200.81 161.538 205.129C156.788 208.584 152.469 210.312 148.582 210.312C143.399 210.312 140.808 206.749 140.808 199.623C140.808 195.736 141.456 192.173 142.751 188.933C144.479 184.183 146.962 178.676 150.202 172.414C153.657 166.152 157.652 159.889 162.186 153.627C166.721 147.365 171.364 142.074 176.115 137.755C177.842 136.675 178.922 136.136 179.354 136.136C180.865 136.136 181.621 136.999 181.621 138.727C181.621 139.375 181.297 140.238 180.649 141.318C178.706 143.478 176.439 146.609 173.847 150.712C171.256 154.815 168.773 159.241 166.397 163.992C164.022 168.743 161.97 173.17 160.243 177.273C158.731 181.16 157.975 184.075 157.975 186.018C157.975 189.905 159.703 191.849 163.158 191.849C164.67 191.849 166.289 191.309 168.017 190.229C176.007 185.262 183.349 179.324 190.043 172.414C196.737 165.288 202.999 155.678 208.83 143.586C210.773 142.29 212.933 141.642 215.308 141.642C217.684 141.642 219.627 142.398 221.139 143.91C222.866 145.421 223.73 147.473 223.73 150.064C223.73 152.007 223.19 154.275 222.11 156.866C221.894 157.73 221.462 158.594 220.815 159.457C220.383 160.321 219.843 161.293 219.195 162.373C218.547 163.452 218.007 164.532 217.576 165.612C217.144 166.475 216.712 167.231 216.28 167.879C212.177 175.221 208.938 181.375 206.562 186.342C204.403 191.309 203.323 195.628 203.323 199.299C203.323 203.618 205.267 205.777 209.154 205.777C212.609 205.777 216.064 204.481 219.519 201.89C221.678 200.378 223.514 199.623 225.026 199.623C227.401 199.623 226.861 201.134 223.406 204.157C220.167 206.965 216.172 209.556 211.421 211.931C206.886 213.659 203.755 214.523 202.028 214.523Z" fill="#195191"/>
<path d="M205.348 284.164C201.461 284.164 198.546 282.868 196.602 280.277C194.659 277.686 193.687 274.231 193.687 269.912C193.687 261.706 196.494 253.392 202.109 244.971C206.859 238.06 213.338 230.286 221.543 221.649C229.965 213.011 238.927 204.481 248.428 196.06C257.93 187.638 266.783 180.404 274.989 174.357C284.491 167.231 292.373 161.509 298.635 157.19C304.897 152.655 310.836 148.768 316.45 145.529C322.065 142.29 328.543 138.943 335.885 135.488C355.752 101.153 367.736 66.3862 371.839 31.1876C372.055 30.5398 372.163 29.0282 372.163 26.6528C372.163 17.7992 368.492 13.3724 361.15 13.3724C355.752 13.3724 348.41 15.7477 339.124 20.4985C333.51 23.3057 327.571 26.8688 321.309 31.1876C315.047 35.5065 309.432 39.7173 304.465 43.8202C299.499 47.7072 296.044 50.8384 294.1 53.2137C286.11 62.2833 278.876 71.7848 272.398 81.7181C266.136 91.6515 261.493 100.721 258.47 108.927C256.31 114.109 255.23 119.184 255.23 124.151C255.23 132.357 259.225 135.812 267.215 134.516C277.365 132.788 287.082 129.657 296.367 125.123C305.653 120.588 313.319 115.837 319.365 110.87C320.445 110.223 321.741 109.575 323.252 108.927C324.764 108.279 325.952 107.955 326.815 107.955C327.247 107.955 327.463 108.063 327.463 108.279C327.463 108.927 326.923 109.791 325.844 110.87C315.262 119.076 305.329 125.77 296.044 130.953C286.974 135.92 277.473 139.159 267.539 140.67C265.596 140.886 263.976 141.102 262.68 141.318C261.385 141.318 260.305 141.318 259.441 141.318C252.963 141.318 248.104 139.807 244.865 136.783C241.626 133.76 240.007 129.549 240.007 124.151C240.007 115.297 243.786 104.176 251.344 90.7877C258.901 77.1833 268.727 63.6869 280.82 50.2985C289.889 40.1492 299.283 31.6195 309 24.7093C318.718 17.5832 328.003 11.9687 336.857 7.86584C345.71 3.76294 353.16 1.2796 359.207 0.415828C359.855 0.199889 361.15 0.0919189 363.094 0.0919189C369.572 0.0919189 374.755 2.25134 378.642 6.57018C382.744 10.889 384.796 16.9354 384.796 24.7093C384.796 25.5731 384.688 26.5448 384.472 27.6246C384.472 28.7043 384.364 29.9999 384.148 31.5115C379.181 64.7666 368.06 97.8058 350.785 130.629L355.968 128.362C358.343 127.498 360.286 127.066 361.798 127.066C364.821 127.066 366.333 127.714 366.333 129.009C366.333 129.873 365.469 130.845 363.742 131.925C360.286 133.652 357.047 135.272 354.024 136.783C351.001 138.079 348.086 139.267 345.278 140.346C335.129 156.11 323.792 172.306 311.268 188.933C298.959 205.345 286.11 220.785 272.722 235.253C259.333 249.937 245.837 262.246 232.233 272.179C221.435 280.169 212.474 284.164 205.348 284.164ZM210.854 266.349C216.469 266.349 222.947 263.326 230.289 257.279C236.983 251.881 244.433 245.186 252.639 237.197C261.061 229.423 269.375 221.217 277.581 212.579C285.786 204.157 293.236 196.168 299.931 188.61C306.625 180.836 311.591 174.465 314.831 169.499C317.422 165.396 319.797 161.617 321.957 158.162C324.116 154.491 326.06 151.144 327.787 148.12C323.036 150.496 318.502 152.979 314.183 155.57C309.864 157.946 305.761 160.429 301.874 163.02C299.067 164.748 295.504 167.231 291.185 170.47C286.866 173.71 281.683 177.597 275.637 182.131C268.511 187.314 260.737 193.9 252.315 201.89C243.894 209.664 235.904 217.654 228.346 225.86C221.004 234.065 214.957 241.623 210.206 248.534C206.535 253.932 204.7 258.143 204.7 261.166C204.7 263.757 205.78 265.377 207.939 266.025C208.155 266.241 209.127 266.349 210.854 266.349Z" fill="#65ADFF"/>
<path d="M374.135 134.192C371.327 134.192 369.924 133.544 369.924 132.249C369.924 131.169 370.679 129.657 372.191 127.714C373.919 125.554 375.862 123.719 378.022 122.207C382.772 119.184 386.443 116.593 389.035 114.433C391.842 112.274 395.189 108.603 399.076 103.42C399.292 103.852 399.4 104.716 399.4 106.012C399.4 108.819 398.212 112.274 395.837 116.377C393.677 120.264 391.194 123.827 388.387 127.066C385.579 130.305 383.096 132.357 380.937 133.22C378.993 133.868 376.726 134.192 374.135 134.192ZM345.306 213.551C343.579 213.551 341.959 212.903 340.448 211.607C338.936 210.312 338.18 208.584 338.18 206.425C338.18 201.89 341.311 193.576 347.574 181.483L351.137 174.357C351.569 173.925 352.108 172.846 352.756 171.118C353.62 169.391 354.808 167.123 356.319 164.316C357.831 161.293 359.019 158.594 359.882 156.218C360.746 153.843 361.394 151.575 361.826 149.416C361.826 149.2 362.258 148.768 363.121 148.12C363.985 147.473 364.849 146.933 365.713 146.501L367.656 146.177C369.384 146.177 370.787 146.501 371.867 147.149C373.163 147.796 373.595 148.66 373.163 149.74C371.651 152.979 370.356 155.786 369.276 158.162C368.196 160.537 367.332 162.589 366.685 164.316H366.361C363.985 169.715 361.934 174.897 360.206 179.864C358.695 184.615 358.047 189.149 358.263 193.468L358.587 202.214C358.371 204.373 357.615 206.209 356.319 207.72C355.456 208.368 354.268 209.124 352.756 209.988C351.245 211.068 349.301 212.147 346.926 213.227C346.71 213.443 346.17 213.551 345.306 213.551Z" fill="#65ADFF"/>
</g>
<defs>
<filter id="filter0_i_56_18" x="0.685059" y="0.0919189" width="398.715" height="288.072" filterUnits="userSpaceOnUse" color-interpolation-filters="sRGB">
<feFlood flood-opacity="0" result="BackgroundImageFix"/>
<feBlend mode="normal" in="SourceGraphic" in2="BackgroundImageFix" result="shape"/>
<feColorMatrix in="SourceAlpha" type="matrix" values="0 0 0 0 0 0 0 0 0 0 0 0 0 0 0 0 0 0 127 0" result="hardAlpha"/>
<feOffset dy="4"/>
<feGaussianBlur stdDeviation="2"/>
<feComposite in2="hardAlpha" operator="arithmetic" k2="-1" k3="1"/>
<feColorMatrix type="matrix" values="0 0 0 0 0 0 0 0 0 0 0 0 0 0 0 0 0 0 0.25 0"/>
<feBlend mode="normal" in2="shape" result="effect1_innerShadow_56_18"/>
</filter>
</defs>
</svg>
