<svg width="238" height="227" viewBox="0 0 238 227" fill="none" xmlns="http://www.w3.org/2000/svg">
<g clip-path="url(#clip0_1_4)">
<path d="M-4.76837e-07 26.3689C-4.76837e-07 18.7256 2.68026 12.4201 8.04054 7.45222C13.4008 2.48413 20.3694 0.000207901 28.9459 0.000207901C37.3694 0.000207901 44.1846 2.44584 49.3919 7.33757C54.7522 12.382 57.4324 18.9549 57.4324 27.0567C57.4324 34.3941 54.8289 40.5084 49.6216 45.4001C44.2613 50.4446 37.2162 52.9668 28.4865 52.9668H28.2568C19.8333 52.9668 13.0181 50.4446 7.81081 45.4001C2.60353 40.3557 -4.76837e-07 34.0119 -4.76837e-07 26.3689ZM2.98649 227V73.8324H53.9865V227H2.98649ZM82.2432 227H133.243V141.474C133.243 136.123 133.856 131.996 135.081 129.092C137.225 123.895 140.48 119.5 144.845 115.908C149.209 112.315 154.685 110.519 161.27 110.519C178.423 110.519 187 122.06 187 145.142V227H238V139.181C238 116.557 232.64 99.3985 221.919 87.7046C211.198 76.0107 197.032 70.1637 179.419 70.1637C159.662 70.1637 144.27 78.6476 133.243 95.6152V96.0738H133.014L133.243 95.6152V73.8324H82.2432C82.5495 78.7239 82.7027 93.9336 82.7027 119.462C82.7027 144.989 82.5495 180.835 82.2432 227Z" fill="#65ADFF"/>
</g>
<defs>
<clipPath id="clip0_1_4">
<rect width="238" height="227" fill="white"/>
</clipPath>
</defs>
</svg>
